<svg width="768" height="768" viewBox="0 0 768 768" fill="none" xmlns="http://www.w3.org/2000/svg">
<path fill-rule="evenodd" clip-rule="evenodd" d="M384 211.791L458.566 254.845L533.133 297.895V470.105L458.566 513.155L384 556.209L309.432 513.155L234.864 470.105V384V297.895L309.432 254.845L384 211.791Z" fill="#FF6600"/>
<path fill-rule="evenodd" clip-rule="evenodd" d="M384 301.369L425.313 342.687L466.63 384L425.313 425.313L384 466.631L342.686 425.313L301.369 384L342.686 342.687L384 301.369Z" fill="#E879F9"/>
<path fill-rule="evenodd" clip-rule="evenodd" d="M234.864 297.895L384 301.369L301.369 384L234.864 297.895Z" fill="#F0ABFC"/>
<path fill-rule="evenodd" clip-rule="evenodd" d="M234.864 470.105L384 466.631L301.369 384L234.864 470.105Z" fill="#C026D3"/>
<path fill-rule="evenodd" clip-rule="evenodd" d="M234.864 297.895V470.105L301.369 384L234.864 297.895Z" fill="#D946EF"/>
<path fill-rule="evenodd" clip-rule="evenodd" d="M533.135 297.895L384 301.369L466.631 384L533.135 297.895Z" fill="#F0ABFC"/>
<path fill-rule="evenodd" clip-rule="evenodd" d="M533.135 470.105L384 466.631L466.631 384L533.135 470.105Z" fill="#A21CAF"/>
<path fill-rule="evenodd" clip-rule="evenodd" d="M533.134 297.895V470.105L466.63 384L533.134 297.895Z" fill="#D946EF"/>
<path fill-rule="evenodd" clip-rule="evenodd" d="M234.864 297.895L384 301.369V211.791L234.864 297.895Z" fill="#F5D0FE"/>
<path fill-rule="evenodd" clip-rule="evenodd" d="M533.135 297.895L384 301.369V211.791L533.135 297.895Z" fill="#FAE8FF"/>
<path fill-rule="evenodd" clip-rule="evenodd" d="M234.864 470.105L384 466.631V556.209L234.864 470.105Z" fill="#701A75"/>
<path fill-rule="evenodd" clip-rule="evenodd" d="M533.135 470.105L384 466.631V556.209L533.135 470.105Z" fill="#86198F"/>
</svg>
